<svg xmlns="http://www.w3.org/2000/svg" xmlns:xlink="http://www.w3.org/1999/xlink" viewBox="0 0 832 112" width="832" height="112" role="img" aria-label="">
  <defs>
    <filter id="glow" x="-200%%" y="-200%%" width="500%%" height="500%%">
      <feGaussianBlur stdDeviation="2.5" result="b"/><feMerge><feMergeNode in="b"/><feMergeNode in="SourceGraphic"/></feMerge>
    </filter>
    <linearGradient id="sheen" x1="0" y1="0" x2="0" y2="1">
      <stop offset="0" stop-color="#FFFFFF" stop-opacity="0.10"/><stop offset="1" stop-color="#FFFFFF" stop-opacity="0"/>
    </linearGradient>
  </defs>
  <defs>
    <filter id="shadow" x="-20%" y="-20%" width="140%" height="160%"><feGaussianBlur stdDeviation="4"/></filter>
    <linearGradient id="budfill" x1="0" y1="0" x2="0" y2="1">
      <stop offset="0" stop-color="#15717A"/><stop offset="1" stop-color="#0B4F55"/>
    </linearGradient>
  </defs>
  <clipPath id="panel"><rect width="832" height="112" rx="14"/></clipPath>
  <rect width="832" height="112" rx="14" fill="#132124"/>
  <g clip-path="url(#panel)">
  <radialGradient id="hglow" cx="50%" cy="40%" r="60%"><stop offset="0" stop-color="#48D1CC" stop-opacity="0.12"/><stop offset="1" stop-color="#48D1CC" stop-opacity="0"/></radialGradient><rect width="832" height="112" fill="url(#hglow)"/>
  <path d="M843.4 -6.0 L796.4 -3.2 L749.8 0.1 L703.6 3.9 L657.8 8.1 L612.3 12.4 L567.1 16.8 L522.0 21.1 L477.2 25.3 L432.4 29.1 L387.6 32.5 L342.8 35.4 L298.0 37.6 L252.9 39.0 L207.6 39.4 L162.1 38.8 L116.2 37.0 L115.8 43.0 L161.8 45.9 L207.5 47.7 L253.0 48.3 L298.2 48.1 L343.4 47.0 L388.4 45.3 L433.3 43.0 L478.3 40.2 L523.4 37.2 L568.5 34.0 L613.8 30.7 L659.3 27.5 L705.1 24.5 L751.2 21.8 L797.6 19.6 L844.6 18.0 Z" fill="#1E958E"/>
  <path d="M654.4 15.2 L652.4 18.9 L650.5 22.8 L648.8 26.8 L647.2 30.6 L645.8 34.4 L644.4 38.1 L643.0 41.8 L641.6 45.2 L640.2 48.5 L638.6 51.7 L642.3 54.0 L644.4 50.9 L646.5 47.7 L648.4 44.3 L650.3 40.9 L652.2 37.3 L654.1 33.8 L656.1 30.3 L658.1 26.9 L660.3 23.6 L662.6 20.4 Z" fill="#1E958E"/>
  <path d="M639.7 50.6 L636.5 51.9 L633.5 53.4 L630.6 55.0 L627.9 56.8 L625.3 58.7 L622.8 60.5 L620.3 62.2 L617.9 63.7 L615.4 65.1 L612.8 66.2 L613.6 68.1 L616.3 67.2 L619.1 66.0 L621.8 64.6 L624.4 63.0 L627.1 61.4 L629.8 59.9 L632.5 58.4 L635.3 57.0 L638.1 55.9 L641.2 55.0 Z" fill="#1E958E"/>
  <g opacity="0.55"><ellipse cx="608" cy="67" rx="4" ry="2" transform="rotate(184 608 67)" fill="#2BA59E"/><ellipse cx="609" cy="70" rx="4" ry="2" transform="rotate(144 609 70)" fill="#1E958E"/><ellipse cx="609" cy="64" rx="4" ry="2" transform="rotate(221 609 64)" fill="#2BA59E"/></g>
  <path d="M638.2 52.5 L637.9 55.1 L637.6 57.7 L637.4 60.2 L637.1 62.8 L636.8 65.3 L636.6 67.8 L636.3 70.2 L636.1 72.6 L635.9 75.0 L635.7 77.2 L637.7 77.5 L638.2 75.3 L638.6 73.0 L639.1 70.7 L639.6 68.3 L640.1 65.8 L640.6 63.3 L641.2 60.8 L641.7 58.3 L642.2 55.7 L642.7 53.1 Z" fill="#1E958E"/>
  <g opacity="0.55"><ellipse cx="634" cy="82" rx="4" ry="2" transform="rotate(124 634 82)" fill="#48D1CC"/><ellipse cx="632" cy="79" rx="4" ry="2" transform="rotate(162 632 79)" fill="#2BA59E"/><ellipse cx="634" cy="81" rx="4" ry="2" transform="rotate(125 634 81)" fill="#48D1CC"/></g>
  <path d="M570.7 22.3 L569.3 21.2 L567.9 20.2 L566.6 19.0 L565.3 17.8 L564.0 16.6 L562.7 15.3 L561.4 14.0 L560.0 12.8 L558.7 11.7 L557.3 10.6 L554.6 13.4 L555.6 14.6 L556.5 16.0 L557.3 17.4 L558.2 18.9 L559.2 20.4 L560.1 22.0 L561.2 23.6 L562.3 25.3 L563.6 26.9 L564.8 28.5 Z" fill="#1E958E"/>
  <path d="M475.2 30.2 L471.7 33.9 L468.2 37.5 L464.5 41.0 L460.8 44.3 L457.0 47.7 L453.3 50.9 L449.7 54.2 L446.1 57.4 L442.8 60.7 L439.7 64.1 L442.0 66.4 L445.3 63.4 L448.8 60.5 L452.5 57.6 L456.4 54.7 L460.4 51.8 L464.4 48.8 L468.5 45.6 L472.5 42.3 L476.5 38.9 L480.3 35.3 Z" fill="#1E958E"/>
  <path d="M441 64 L434 63 L427 64 L421 65 L415 65 L409 65 L408 67 L415 67 L421 67 L427 66 L434 66 L441 67 Z" fill="#1E958E"/>
  <g opacity="0.55"><ellipse cx="404" cy="68" rx="4" ry="2" transform="rotate(152 404 68)" fill="#2BA59E"/><ellipse cx="404" cy="64" rx="4" ry="2" transform="rotate(202 404 64)" fill="#2BA59E"/></g>
  <path d="M439 65 L437 72 L436 79 L436 87 L435 93 L433 100 L435 100 L437 94 L438 87 L439 80 L440 73 L442 66 Z" fill="#1E958E"/>
  <path d="M390.2 36.8 L386.2 33.0 L381.8 29.7 L377.1 27.0 L372.4 24.7 L367.8 22.6 L363.2 20.6 L358.8 18.5 L354.7 16.4 L351.0 13.9 L347.6 11.0 L345.7 13.0 L349.0 16.3 L352.9 19.2 L357.0 21.8 L361.4 24.2 L365.8 26.6 L370.3 28.9 L374.6 31.4 L378.6 34.2 L382.4 37.3 L385.8 41.1 Z" fill="#1E958E"/>
  <path d="M296.5 41.0 L292.8 44.4 L289.0 47.4 L285.0 50.0 L280.7 52.4 L276.4 54.7 L272.1 56.9 L267.9 59.2 L263.9 61.6 L260.1 64.3 L256.7 67.2 L258.2 68.9 L261.6 66.3 L265.3 63.9 L269.3 61.8 L273.6 59.8 L278.0 57.9 L282.5 55.8 L287.0 53.6 L291.4 51.0 L295.8 48.1 L299.7 44.7 Z" fill="#1E958E"/>
  <path d="M257 67 L251 67 L245 68 L239 69 L233 70 L227 71 L227 72 L233 71 L239 71 L245 70 L251 70 L258 69 Z" fill="#1E958E"/>
  <g opacity="0.55"><ellipse cx="222" cy="72" rx="4" ry="2" transform="rotate(171 222 72)" fill="#48D1CC"/><ellipse cx="225" cy="67" rx="4" ry="2" transform="rotate(244 225 67)" fill="#2BA59E"/></g>
  <path d="M256 68 L253 73 L251 79 L248 85 L246 90 L243 95 L244 96 L247 91 L249 85 L252 80 L255 74 L258 69 Z" fill="#1E958E"/>
  <g opacity="0.55"><ellipse cx="243" cy="100" rx="4" ry="2" transform="rotate(91 243 100)" fill="#1E958E"/><ellipse cx="240" cy="99" rx="4" ry="2" transform="rotate(138 240 99)" fill="#48D1CC"/><ellipse cx="244" cy="100" rx="4" ry="2" transform="rotate(76 244 100)" fill="#48D1CC"/></g>
  <path d="M209 42 L202 35 L194 29 L186 23 L179 18 L173 12 L172 13 L178 19 L185 25 L193 31 L200 37 L206 45 Z" fill="#1E958E"/>
  <path d="M341 42 L344 53 L349 64 L354 75 L358 85 L361 95 L362 95 L360 85 L356 74 L351 63 L347 52 L345 41 Z" fill="#1E958E"/>
  <g opacity="0.60"><ellipse cx="357" cy="97" rx="4" ry="1.8" transform="rotate(46 357 97)" fill="#2BA59E"/><ellipse cx="365" cy="97" rx="4" ry="1.8" transform="rotate(133 365 97)" fill="#2BA59E"/><ellipse cx="357" cy="97" rx="4" ry="1.8" transform="rotate(35 357 97)" fill="#2BA59E"/><ellipse cx="365" cy="97" rx="4" ry="1.8" transform="rotate(148 365 97)" fill="#2BA59E"/></g>
  <circle cx="361.3" cy="96.0" r="2.4" fill="#E9A93A" filter="url(#glow)"><animate attributeName="opacity" values="0.35;1;0.35" dur="3.6s" begin="0.8s" repeatCount="indefinite"/></circle>
  <path d="M296 43 L298 54 L299 64 L302 75 L303 85 L305 94 L305 94 L305 84 L303 74 L302 64 L300 53 L300 43 Z" fill="#1E958E"/>
  <g opacity="0.60"><ellipse cx="301" cy="96" rx="4" ry="1.8" transform="rotate(45 301 96)" fill="#48D1CC"/><ellipse cx="309" cy="96" rx="4" ry="1.8" transform="rotate(133 309 96)" fill="#2BA59E"/><ellipse cx="301" cy="96" rx="4" ry="1.8" transform="rotate(45 301 96)" fill="#2BA59E"/><ellipse cx="309" cy="96" rx="4" ry="1.8" transform="rotate(137 309 96)" fill="#2BA59E"/></g>
  <circle cx="305.0" cy="95.0" r="2.4" fill="#E9A93A" filter="url(#glow)"><animate attributeName="opacity" values="0.35;1;0.35" dur="2.7s" begin="0.5s" repeatCount="indefinite"/></circle>
  <path d="M250.9 43.2 L250.2 47.8 L248.8 52.3 L246.8 56.9 L244.6 61.5 L242.1 66.0 L239.7 70.6 L237.4 75.1 L235.4 79.5 L233.9 83.8 L233.1 87.9 L233.9 88.1 L235.0 84.1 L236.8 80.1 L239.0 75.9 L241.6 71.7 L244.3 67.3 L247.0 62.8 L249.6 58.3 L252.0 53.6 L253.8 48.8 L254.9 44.1 Z" fill="#1E958E"/>
  <g opacity="0.60"><ellipse cx="239" cy="69" rx="4" ry="1.8" transform="rotate(50 239 69)" fill="#48D1CC"/><ellipse cx="247" cy="69" rx="4" ry="1.8" transform="rotate(128 247 69)" fill="#2BA59E"/><ellipse cx="230" cy="86" rx="4" ry="1.8" transform="rotate(52 230 86)" fill="#2BA59E"/><ellipse cx="238" cy="86" rx="4" ry="1.8" transform="rotate(126 238 86)" fill="#2BA59E"/></g>
  <circle cx="233.5" cy="89.0" r="2.4" fill="#E9A93A" filter="url(#glow)"><animate attributeName="opacity" values="0.35;1;0.35" dur="3.4s" begin="1.4s" repeatCount="indefinite"/></circle>
  <path d="M206 43 L203 53 L198 63 L192 74 L187 84 L184 93 L185 93 L188 84 L194 75 L200 65 L206 55 L209 44 Z" fill="#1E958E"/>
  <g opacity="0.60"><ellipse cx="180" cy="95" rx="4" ry="1.8" transform="rotate(52 180 95)" fill="#2BA59E"/><ellipse cx="188" cy="95" rx="4" ry="1.8" transform="rotate(128 188 95)" fill="#2BA59E"/><ellipse cx="180" cy="95" rx="4" ry="1.8" transform="rotate(40 180 95)" fill="#48D1CC"/><ellipse cx="188" cy="95" rx="4" ry="1.8" transform="rotate(138 188 95)" fill="#48D1CC"/></g>
  <circle cx="184.2" cy="94.0" r="2.4" fill="#E9A93A" filter="url(#glow)"><animate attributeName="opacity" values="0.35;1;0.35" dur="2.9s" begin="1.3s" repeatCount="indefinite"/></circle>
  <path d="M160 42 L160 52 L160 61 L159 71 L159 79 L159 88 L160 88 L161 80 L161 71 L162 61 L163 52 L164 42 Z" fill="#1E958E"/>
  <g opacity="0.60"><ellipse cx="156" cy="90" rx="4" ry="1.8" transform="rotate(32 156 90)" fill="#2BA59E"/><ellipse cx="164" cy="90" rx="4" ry="1.8" transform="rotate(134 164 90)" fill="#2BA59E"/><ellipse cx="156" cy="90" rx="4" ry="1.8" transform="rotate(42 156 90)" fill="#2BA59E"/><ellipse cx="164" cy="90" rx="4" ry="1.8" transform="rotate(128 164 90)" fill="#48D1CC"/></g>
  <circle cx="159.5" cy="89.0" r="2.4" fill="#E9A93A" filter="url(#glow)"><animate attributeName="opacity" values="0.35;1;0.35" dur="2.9s" begin="1.7s" repeatCount="indefinite"/></circle>
  <circle r="2.4" fill="#E9A93A" filter="url(#glow)"><animateMotion dur="2.8s" begin="0.0s" repeatCount="indefinite" path="M844.0 6.0 C592.0 16.0 362.0 56.0 116.0 40.0"/></circle>
    <circle r="2.4" fill="#E9A93A" filter="url(#glow)" opacity="0"><animate attributeName="opacity" to="1" begin="1.4s" dur="0.01s" fill="freeze"/><animateMotion dur="2.8s" begin="1.4s" repeatCount="indefinite" path="M844.0 6.0 C592.0 16.0 362.0 56.0 116.0 40.0"/></circle>
  <circle cx="116" cy="40" r="5" fill="#48D1CC" opacity="0.5" filter="url(#glow)"/><circle cx="116" cy="40" r="3" fill="#E9A93A"/>
  <circle r="2.1" fill="#E9A93A" filter="url(#glow)" opacity="0.1"><animateMotion dur="8s" repeatCount="indefinite" path="M247 96 a14 9 0 1 1 28 0 a14 9 0 1 1 -28 0"/><animate attributeName="opacity" values="0.1;1;0.35;0.9;0.1" dur="2.7s" begin="0.0s" repeatCount="indefinite"/></circle>
  <circle r="1.3" fill="#E9A93A" filter="url(#glow)" opacity="0.1"><animateMotion dur="14s" repeatCount="indefinite" path="M772 95 a17 10 0 1 1 34 0 a17 10 0 1 1 -34 0"/><animate attributeName="opacity" values="0.1;1;0.35;0.9;0.1" dur="4.7s" begin="0.45s" repeatCount="indefinite"/></circle>
  <circle r="2.1" fill="#E9A93A" filter="url(#glow)" opacity="0.1"><animateMotion dur="14s" repeatCount="indefinite" path="M194 41 a22 15 0 1 1 44 0 a22 15 0 1 1 -44 0"/><animate attributeName="opacity" values="0.1;1;0.35;0.9;0.1" dur="4.7s" begin="0.9s" repeatCount="indefinite"/></circle>
  <circle r="1.7" fill="#E9A93A" filter="url(#glow)" opacity="0.1"><animateMotion dur="9s" repeatCount="indefinite" path="M787 72 a14 6 0 1 1 28 0 a14 6 0 1 1 -28 0"/><animate attributeName="opacity" values="0.1;1;0.35;0.9;0.1" dur="3.0s" begin="1.35s" repeatCount="indefinite"/></circle>
  <circle r="2.1" fill="#E9A93A" filter="url(#glow)" opacity="0.1"><animateMotion dur="11s" repeatCount="indefinite" path="M208 42 a10 9 0 1 1 20 0 a10 9 0 1 1 -20 0"/><animate attributeName="opacity" values="0.1;1;0.35;0.9;0.1" dur="3.7s" begin="1.8s" repeatCount="indefinite"/></circle>
  <circle r="1.7" fill="#E9A93A" filter="url(#glow)" opacity="0.1"><animateMotion dur="11s" repeatCount="indefinite" path="M494 93 a17 11 0 1 1 34 0 a17 11 0 1 1 -34 0"/><animate attributeName="opacity" values="0.1;1;0.35;0.9;0.1" dur="3.7s" begin="2.25s" repeatCount="indefinite"/></circle>
  <circle r="2.1" fill="#E9A93A" filter="url(#glow)" opacity="0.1"><animateMotion dur="10s" repeatCount="indefinite" path="M304 74 a19 6 0 1 1 38 0 a19 6 0 1 1 -38 0"/><animate attributeName="opacity" values="0.1;1;0.35;0.9;0.1" dur="3.3s" begin="2.7s" repeatCount="indefinite"/></circle>
  <circle r="1.7" fill="#E9A93A" filter="url(#glow)" opacity="0.1"><animateMotion dur="12s" repeatCount="indefinite" path="M652 90 a19 9 0 1 1 38 0 a19 9 0 1 1 -38 0"/><animate attributeName="opacity" values="0.1;1;0.35;0.9;0.1" dur="4.0s" begin="3.15s" repeatCount="indefinite"/></circle>
  <circle r="2.1" fill="#E9A93A" filter="url(#glow)" opacity="0.1"><animateMotion dur="8s" repeatCount="indefinite" path="M525 64 a20 7 0 1 1 40 0 a20 7 0 1 1 -40 0"/><animate attributeName="opacity" values="0.1;1;0.35;0.9;0.1" dur="2.7s" begin="3.6s" repeatCount="indefinite"/></circle>
  <circle r="2.6" fill="#E9A93A" filter="url(#glow)" opacity="0.1"><animateMotion dur="14s" repeatCount="indefinite" path="M457 71 a21 13 0 1 1 42 0 a21 13 0 1 1 -42 0"/><animate attributeName="opacity" values="0.1;1;0.35;0.9;0.1" dur="4.7s" begin="4.05s" repeatCount="indefinite"/></circle>
  <circle r="2.1" fill="#E9A93A" filter="url(#glow)" opacity="0.1"><animateMotion dur="7s" repeatCount="indefinite" path="M254 18 a13 8 0 1 1 26 0 a13 8 0 1 1 -26 0"/><animate attributeName="opacity" values="0.1;1;0.35;0.9;0.1" dur="2.3s" begin="4.5s" repeatCount="indefinite"/></circle>
  <circle r="1.7" fill="#E9A93A" filter="url(#glow)" opacity="0.1"><animateMotion dur="12s" repeatCount="indefinite" path="M660 83 a12 15 0 1 1 24 0 a12 15 0 1 1 -24 0"/><animate attributeName="opacity" values="0.1;1;0.35;0.9;0.1" dur="4.0s" begin="4.95s" repeatCount="indefinite"/></circle>
  <text x="800" y="96" font-family="Consolas, Cascadia Mono, Menlo, Courier New, monospace" font-size="10" letter-spacing="2.5" fill="#E9A93A" text-anchor="end">SKILL TREE  /  CLAUDE MASTERCLASS  /  STUDY PLAN</text>
  </g>
</svg>
